<svg width="16" height="14" viewBox="0 0 16 14" fill="none" xmlns="http://www.w3.org/2000/svg">
<path d="M8.58364 13.2848C8.49624 13.1977 8.42689 13.0942 8.37957 12.9803C8.33225 12.8663 8.3079 12.7442 8.3079 12.6208C8.3079 12.4974 8.33225 12.3752 8.37957 12.2613C8.42689 12.1473 8.49624 12.0438 8.58364 11.9567L12.6063 7.93405H1.12192C0.873277 7.93405 0.634821 7.83528 0.459005 7.65946C0.28319 7.48365 0.184418 7.24519 0.184418 6.99655C0.184418 6.74791 0.28319 6.50945 0.459005 6.33364C0.634821 6.15782 0.873277 6.05905 1.12192 6.05905H12.6063L8.58364 2.03483C8.40752 1.85871 8.30857 1.61984 8.30857 1.37077C8.30857 1.1217 8.40752 0.882825 8.58364 0.706704C8.75976 0.530584 8.99863 0.431641 9.2477 0.431641C9.49677 0.431641 9.73564 0.530584 9.91176 0.706704L15.5368 6.3317C15.6242 6.4188 15.6935 6.52229 15.7408 6.63625C15.7881 6.7502 15.8125 6.87238 15.8125 6.99577C15.8125 7.11916 15.7881 7.24133 15.7408 7.35529C15.6935 7.46924 15.6242 7.57273 15.5368 7.65983L9.91176 13.2848C9.82466 13.3722 9.72117 13.4416 9.60722 13.4889C9.49326 13.5362 9.37109 13.5606 9.2477 13.5606C9.12431 13.5606 9.00214 13.5362 8.88818 13.4889C8.77423 13.4416 8.67073 13.3722 8.58364 13.2848Z" fill="#C39161"/>
</svg>
